<?xml version="1.0" encoding="UTF-8"?>
<svg id="Calque_1" data-name="Calque 1" xmlns="http://www.w3.org/2000/svg" version="1.1" xmlns:xlink="http://www.w3.org/1999/xlink" viewBox="0 0 400 200">
  <defs>
    <style>
      .cls-1 {
        fill: url(#Dégradé_sans_nom_36-8);
      }

      .cls-1, .cls-2, .cls-3, .cls-4, .cls-5, .cls-6, .cls-7, .cls-8, .cls-9, .cls-10, .cls-11, .cls-12, .cls-13 {
        stroke-width: 0px;
      }

      .cls-2 {
        fill: url(#Dégradé_sans_nom_36);
      }

      .cls-3 {
        fill: url(#Dégradé_sans_nom_36-12);
      }

      .cls-4 {
        fill: url(#Dégradé_sans_nom_36-3);
      }

      .cls-5 {
        fill: url(#Dégradé_sans_nom_36-6);
      }

      .cls-6 {
        fill: url(#Dégradé_sans_nom_36-4);
      }

      .cls-7 {
        fill: url(#Dégradé_sans_nom_36-9);
      }

      .cls-8 {
        fill: url(#Dégradé_sans_nom_36-5);
      }

      .cls-9 {
        fill: url(#Dégradé_sans_nom_36-10);
      }

      .cls-10 {
        fill: url(#Dégradé_sans_nom_36-2);
      }

      .cls-11 {
        fill: url(#Dégradé_sans_nom_36-7);
      }

      .cls-12 {
        fill: url(#Dégradé_sans_nom_36-11);
      }

      .cls-13 {
        fill: #af6d2b;
      }
    </style>
    <linearGradient id="Dégradé_sans_nom_36" data-name="Dégradé sans nom 36" x1="6.77" y1="170.46" x2="186.38" y2="170.46" gradientUnits="userSpaceOnUse">
      <stop offset="0" stop-color="#edc493"/>
      <stop offset=".11" stop-color="#e2a357"/>
      <stop offset=".57" stop-color="#eec89b"/>
      <stop offset=".92" stop-color="#e09d4e"/>
      <stop offset="1" stop-color="#edc290"/>
    </linearGradient>
    <linearGradient id="Dégradé_sans_nom_36-2" data-name="Dégradé sans nom 36" x1="214.02" y1="100.44" x2="394.1" y2="100.44" xlink:href="#Dégradé_sans_nom_36"/>
    <linearGradient id="Dégradé_sans_nom_36-3" data-name="Dégradé sans nom 36" x1="26.36" y1="13.98" x2="26.36" y2="143.64" xlink:href="#Dégradé_sans_nom_36"/>
    <linearGradient id="Dégradé_sans_nom_36-4" data-name="Dégradé sans nom 36" x1="71.95" y1="13.98" x2="71.95" y2="143.64" xlink:href="#Dégradé_sans_nom_36"/>
    <linearGradient id="Dégradé_sans_nom_36-5" data-name="Dégradé sans nom 36" x1="115.18" y1="13.98" x2="115.18" y2="143.64" xlink:href="#Dégradé_sans_nom_36"/>
    <linearGradient id="Dégradé_sans_nom_36-6" data-name="Dégradé sans nom 36" x1="163.38" y1="13.98" x2="163.38" y2="143.64" xlink:href="#Dégradé_sans_nom_36"/>
    <linearGradient id="Dégradé_sans_nom_36-7" data-name="Dégradé sans nom 36" x1="23.85" y1="13.98" x2="23.85" y2="143.64" xlink:href="#Dégradé_sans_nom_36"/>
    <linearGradient id="Dégradé_sans_nom_36-8" data-name="Dégradé sans nom 36" x1="51.05" y1="13.98" x2="51.05" y2="143.64" xlink:href="#Dégradé_sans_nom_36"/>
    <linearGradient id="Dégradé_sans_nom_36-9" data-name="Dégradé sans nom 36" x1="69.88" y1="13.98" x2="69.88" y2="143.64" xlink:href="#Dégradé_sans_nom_36"/>
    <linearGradient id="Dégradé_sans_nom_36-10" data-name="Dégradé sans nom 36" x1="97.94" y1="13.98" x2="97.94" y2="143.64" xlink:href="#Dégradé_sans_nom_36"/>
    <linearGradient id="Dégradé_sans_nom_36-11" data-name="Dégradé sans nom 36" x1="137.65" y1="13.98" x2="137.65" y2="143.64" xlink:href="#Dégradé_sans_nom_36"/>
    <linearGradient id="Dégradé_sans_nom_36-12" data-name="Dégradé sans nom 36" x1="170.85" y1="13.98" x2="170.85" y2="143.64" xlink:href="#Dégradé_sans_nom_36"/>
  </defs>
  <path class="cls-2" d="M184.35,184.56v-28.2h1.81v-4.51H6.77v4.51h2.91v28.2h-2.68v4.51h179.39v-4.51h-2.03ZM182.1,184.56h-26.48v-28.2h26.48v28.2ZM69.4,184.56v-28.2h26.48v28.2h-26.48ZM67.15,156.37v28.2h-26.48v-28.2h26.48ZM98.14,156.37h26.48v28.2h-26.48v-28.2ZM126.88,156.37h26.48v28.2h-26.48v-28.2ZM181.9,153h2.08v2.08h-2.08v-2.08ZM178.14,153h2.08v2.08h-2.08v-2.08ZM174.38,153h2.08v2.08h-2.08v-2.08ZM170.62,153h2.08v2.08h-2.08v-2.08ZM166.86,153h2.08v2.08h-2.08v-2.08ZM163.1,153h2.08v2.08h-2.08v-2.08ZM159.34,153h2.08v2.08h-2.08v-2.08ZM155.58,153h2.08v2.08h-2.08v-2.08ZM151.82,153h2.08v2.08h-2.08v-2.08ZM148.06,153h2.08v2.08h-2.08v-2.08ZM144.3,153h2.08v2.08h-2.08v-2.08ZM140.54,153h2.08v2.08h-2.08v-2.08ZM136.78,153h2.08v2.08h-2.08v-2.08ZM133.02,153h2.08v2.08h-2.08v-2.08ZM129.26,153h2.08v2.08h-2.08v-2.08ZM125.5,153h2.08v2.08h-2.08v-2.08ZM121.74,153h2.08v2.08h-2.08v-2.08ZM117.98,153h2.08v2.08h-2.08v-2.08ZM114.22,153h2.08v2.08h-2.08v-2.08ZM110.46,153h2.08v2.08h-2.08v-2.08ZM106.7,153h2.08v2.08h-2.08v-2.08ZM102.94,153h2.08v2.08h-2.08v-2.08ZM99.18,153h2.08v2.08h-2.08v-2.08ZM95.42,153h2.08v2.08h-2.08v-2.08ZM91.66,153h2.08v2.08h-2.08v-2.08ZM87.9,153h2.08v2.08h-2.08v-2.08ZM84.14,153h2.08v2.08h-2.08v-2.08ZM80.38,153h2.08v2.08h-2.08v-2.08ZM76.62,153h2.08v2.08h-2.08v-2.08ZM72.86,153h2.08v2.08h-2.08v-2.08ZM69.1,153h2.08v2.08h-2.08v-2.08ZM65.34,153h2.08v2.08h-2.08v-2.08ZM61.58,153h2.08v2.08h-2.08v-2.08ZM57.82,153h2.08v2.08h-2.08v-2.08ZM54.06,153h2.08v2.08h-2.08v-2.08ZM50.3,153h2.08v2.08h-2.08v-2.08ZM46.54,153h2.08v2.08h-2.08v-2.08ZM42.78,153h2.08v2.08h-2.08v-2.08ZM39.02,153h2.08v2.08h-2.08v-2.08ZM35.26,153h2.08v2.08h-2.08v-2.08ZM31.5,153h2.08v2.08h-2.08v-2.08ZM27.75,153h2.08v2.08h-2.08v-2.08ZM23.99,153h2.08v2.08h-2.08v-2.08ZM20.23,153h2.08v2.08h-2.08v-2.08ZM16.47,153h2.08v2.08h-2.08v-2.08ZM12.71,153h2.08v2.08h-2.08v-2.08ZM8.95,153h2.08v2.08h-2.08v-2.08ZM11.93,156.37h26.48v28.2H11.93v-28.2ZM11.03,187.86h-2.08v-2.08h2.08v2.08ZM14.79,187.86h-2.08v-2.08h2.08v2.08ZM18.55,187.86h-2.08v-2.08h2.08v2.08ZM22.31,187.86h-2.08v-2.08h2.08v2.08ZM26.07,187.86h-2.08v-2.08h2.08v2.08ZM29.83,187.86h-2.08v-2.08h2.08v2.08ZM33.59,187.86h-2.08v-2.08h2.08v2.08ZM37.35,187.86h-2.08v-2.08h2.08v2.08ZM41.11,187.86h-2.08v-2.08h2.08v2.08ZM44.87,187.86h-2.08v-2.08h2.08v2.08ZM48.63,187.86h-2.08v-2.08h2.08v2.08ZM52.39,187.86h-2.08v-2.08h2.08v2.08ZM56.15,187.86h-2.08v-2.08h2.08v2.08ZM59.91,187.86h-2.08v-2.08h2.08v2.08ZM63.67,187.86h-2.08v-2.08h2.08v2.08ZM67.43,187.86h-2.08v-2.08h2.08v2.08ZM71.19,187.86h-2.08v-2.08h2.08v2.08ZM74.95,187.86h-2.08v-2.08h2.08v2.08ZM78.71,187.86h-2.08v-2.08h2.08v2.08ZM82.47,187.86h-2.08v-2.08h2.08v2.08ZM86.23,187.86h-2.08v-2.08h2.08v2.08ZM89.99,187.86h-2.08v-2.08h2.08v2.08ZM93.74,187.86h-2.08v-2.08h2.08v2.08ZM97.5,187.86h-2.08v-2.08h2.08v2.08ZM101.26,187.86h-2.08v-2.08h2.08v2.08ZM105.02,187.86h-2.08v-2.08h2.08v2.08ZM108.78,187.86h-2.08v-2.08h2.08v2.08ZM112.54,187.86h-2.08v-2.08h2.08v2.08ZM116.3,187.86h-2.08v-2.08h2.08v2.08ZM120.06,187.86h-2.08v-2.08h2.08v2.08ZM123.82,187.86h-2.08v-2.08h2.08v2.08ZM127.58,187.86h-2.08v-2.08h2.08v2.08ZM131.34,187.86h-2.08v-2.08h2.08v2.08ZM135.1,187.86h-2.08v-2.08h2.08v2.08ZM138.86,187.86h-2.08v-2.08h2.08v2.08ZM142.62,187.86h-2.08v-2.08h2.08v2.08ZM146.38,187.86h-2.08v-2.08h2.08v2.08ZM150.14,187.86h-2.08v-2.08h2.08v2.08ZM153.9,187.86h-2.08v-2.08h2.08v2.08ZM157.66,187.86h-2.08v-2.08h2.08v2.08ZM161.42,187.86h-2.08v-2.08h2.08v2.08ZM165.18,187.86h-2.08v-2.08h2.08v2.08ZM168.94,187.86h-2.08v-2.08h2.08v2.08ZM172.7,187.86h-2.08v-2.08h2.08v2.08ZM176.46,187.86h-2.08v-2.08h2.08v2.08ZM180.22,187.86h-2.08v-2.08h2.08v2.08ZM183.98,187.86h-2.08v-2.08h2.08v2.08Z"/>
  <path class="cls-10" d="M304.06,10.4c-49.73,0-90.04,40.31-90.04,90.04s40.31,90.04,90.04,90.04,90.04-40.31,90.04-90.04S353.79,10.4,304.06,10.4ZM304.06,27.88c13.06,0,23.65,10.59,23.65,23.65s-10.59,23.65-23.65,23.65-23.65-10.59-23.65-23.65,10.59-23.65,23.65-23.65ZM314.06,100.44c0,5.53-4.48,10-10,10s-10-4.48-10-10,4.48-10,10-10,10,4.48,10,10ZM257.67,124.09c-13.06,0-23.65-10.59-23.65-23.65s10.59-23.65,23.65-23.65,23.65,10.59,23.65,23.65-10.59,23.65-23.65,23.65ZM304.06,176.43c-13.06,0-23.65-10.59-23.65-23.65s10.59-23.65,23.65-23.65,23.65,10.59,23.65,23.65-10.59,23.65-23.65,23.65ZM348.02,124.09c-13.06,0-23.65-10.59-23.65-23.65s10.59-23.65,23.65-23.65,23.65,10.59,23.65,23.65-10.59,23.65-23.65,23.65Z"/>
  <path class="cls-13" d="M45.67,74.73c-.79-2.62-25.29,4.03-25.29,4.03,0,0,19.44-48.05,20.31-50.47.86-1.95,3.44-7.46,3.17-8.66-.27-1.21-4.3-5.98-7.32-8.12-3.02-2.14-6.65-1.96-6.2-.5l8.87,14.81-27.19,55.05,33.94,6.27s1.52-2.34,2.12-4.96c.6-2.62-1.63-4.84-2.42-7.45Z"/>
  <path class="cls-13" d="M83.22,46.45s.93-.63-1.56-4.66c-4.16-5.1-8.15-3.74-10.67-2.35l-9.01,19.85s-6.55,15.35-3.43,19.88c1.22,1.78,2.51,1.63,3.63.81-1.73,2.22-2.87,3.72-2.87,3.72,0,0,12.09-.5,19.09-21.27,2.53-5.82-7.12,5.99-13.61,14.23.28-.51.44-.87.44-.87-1.89.84-4.92,2.35-4.32-.61,4.84-22.77,22.31-28.72,22.31-28.72Z"/>
  <path class="cls-13" d="M85.45,43.44s.36-.75,1.37-.65,6.6,1.46,7.25,3.78c0,0-15.51,31.08-6.15,34.4,0,0-3.03,2.08-4.56,2.15s2.08-39.68,2.08-39.68Z"/>
  <path class="cls-13" d="M101.74,40.6c1.15-3.65,6.89-4.96,8.81-4.96,8.87.81,12.59,4.94,19.14,5.44,0,0,4.94-.6,5.54-1.31,0,0,4.33,5.13,2.92,9.27,0,0-17.83,10.28-29.42,24.88,0,0,13.1.6,18.84-5.54,0,0,5.14,1.91,5.74,8.26l-1.37,4.4-28.35-5.7,26.6-28.61-28.45-6.12Z"/>
  <path class="cls-13" d="M157.7,36.81s1.5-1.27,3.62-.57c2.12.71,6.75,2.42,7.35,3.43,0,0-17.98,23.42-17.13,36.97.5.45,2.3-.11,4.83-2.42l.31,2.83-8.66,3.02,1.51-19.75,8.17-23.51Z"/>
  <path class="cls-13" d="M177.68,39.56s1.37-.8,2.57-.53,7.72,1.41,8.53,3.16c-8.6,15.72-13.97,37.21-17.39,43.66,0,0-7.05,16.99-26.06,35.53l9.58,19.28v4.09l-11.4-23.15s41.78-59.92,38.69-75.37l-4.52-6.66Z"/>
  <polygon class="cls-13" points="7.01 97.4 10.27 95.51 42.71 95.51 42.71 103.91 40.68 106.76 40.68 97.4 7.01 97.4"/>
  <polygon class="cls-13" points="45.89 97.4 49.15 95.51 58.25 95.51 58.25 141.88 56.22 144.73 56.22 97.4 45.89 97.4"/>
  <polygon class="cls-13" points="64.72 97.4 67.98 95.51 77.08 95.51 77.08 103.91 75.05 106.76 75.05 97.4 64.72 97.4"/>
  <polygon class="cls-13" points="120.37 97.4 123.64 95.51 132.02 95.51 132.02 141.88 129.99 144.73 129.99 97.4 120.37 97.4"/>
  <polygon class="cls-13" points="64.72 109.75 67.98 107.87 77.08 107.87 77.08 141.88 75.05 144.73 75.05 109.75 64.72 109.75"/>
  <polygon class="cls-13" points="20.59 124.42 20.59 141.88 18.57 144.73 18.57 126.3 20.59 124.42"/>
  <polygon class="cls-13" points="22.09 115.44 22.09 106.76 18.52 106.76 18.52 118.88 21.05 117.33 36.1 117.33 36.1 126.3 38.12 123.45 38.12 115.44 22.09 115.44"/>
  <path class="cls-13" d="M83.86,117.47s5.19-10.12,14.93-10.07c12.63.07,16.86,8.62,16.86,12.72l-1.3,2.35-15.49-9.9-14.99,4.89Z"/>
  <path class="cls-13" d="M98.14,116.8c-1.3,1.14-3.05,3.76-3.05,9.81,0,3.2.22,5.9.67,7.72.4,1.62,4.46,2.15,1.74,2.56l-3.76.6-5.84-15.51,7.52-7.59,2.72,2.42Z"/>
  <path class="cls-13" d="M103.98,134.13c-2.44,1.81-5.33,2.93-7.99.98-3.85-1.52.47,3.72.47,3.72l8.56-1.61-1.04-3.09Z"/>
  <path class="cls-13" d="M104.7,131l2-1.17,9.22.58s.56,15-16.21,15c0,0,10.5-8.75,4.99-14.42Z"/>
  <path class="cls-13" d="M158.97,113.51s3.76-5.57,13.77-5.57,13.16,7.79,13.16,7.79l-.74,2.44s-20.48-9.56-26.19-4.66Z"/>
  <path class="cls-13" d="M167.76,115.86c-.87,1.01-2.69,4.03.87,4.63,3.56.6,14.57,1.34,17.53,5.04,2.48,3.1,6.73,14.69-8.99,19.2,0,0,10.6-13.63,4.29-16.31-6.31-2.69-25.05-5.78-20.28-9.74s6.58-2.82,6.58-2.82Z"/>
  <path class="cls-13" d="M155.06,135.09l1.9-1.5,8.13-1.34s.19,4.57,6.25,4.57,6.28-2.01,6.28-2.01l3.19,3.82-16.19,1.48-9.55-5.02Z"/>
  <g>
    <g>
      <path class="cls-4" d="M44.06,76.3c1.58,2.72,2.37,5.33,2.37,7.83,0,.56-.05,1.08-.14,1.55-.09.47-.21.96-.33,1.46-1.07-.16-2.19-.24-3.36-.24h-8.24c-1.55,0-3.27.1-5.16.3s-4.01.47-6.34.81c-2.34.33-5.05.77-8.14,1.31-1.45-.51-2.9-1.5-4.36-2.98-1.45-1.48-2.81-3.27-4.07-5.35.63-1.39,1.42-3.11,2.37-5.16.95-2.05,2.05-4.55,3.31-7.48,1.26-2.94,2.67-6.38,4.21-10.32,1.55-3.94,3.2-8.51,4.97-13.68,1.14-3.41,2.11-6.41,2.94-9,.82-2.59,1.56-5.1,2.22-7.53.66-2.43,1.31-4.97,1.94-7.62.63-2.65,1.33-5.71,2.08-9.19,2.52.51,4.72,1.44,6.58,2.79,1.86,1.36,3.65,3.3,5.35,5.82-.51.82-1.17,2.15-1.99,3.97-.82,1.83-1.78,4.05-2.89,6.67-1.11,2.62-2.32,5.58-3.65,8.9-1.33,3.31-2.72,6.86-4.17,10.64-1.39,3.72-2.75,7.22-4.07,10.5-1.33,3.28-2.51,6.25-3.55,8.89-1.04,2.65-1.88,4.92-2.51,6.81-.63,1.89-.95,3.31-.95,4.26,1.01,0,1.93-.03,2.75-.09.82-.06,1.67-.17,2.56-.33.88-.16,1.85-.35,2.89-.57,1.04-.22,2.29-.52,3.74-.9,1.26-.32,2.43-.58,3.5-.8,1.07-.22,2.13-.41,3.17-.57,1.04-.16,2.11-.28,3.22-.38,1.1-.09,2.35-.2,3.74-.33Z"/>
      <path class="cls-6" d="M85.45,43.44c.63,0,1.37.11,2.23.33.85.22,1.62.51,2.32.85.69.35,1.28.71,1.75,1.09.47.38.71.73.71,1.04-1.26,2.65-2.43,5.32-3.5,8-1.07,2.68-1.99,5.26-2.75,7.72s-1.34,4.77-1.75,6.91c-.41,2.15-.62,4.01-.62,5.59,0,1.77.19,3.24.57,4.4.38,1.17,1.01,2.01,1.89,2.51-.76.5-1.74.91-2.94,1.23-1.2.32-2.27.47-3.22.47-3.41,0-5.11-2.34-5.11-7.01,0-3.6,1.2-8.52,3.6-14.77-1.26,2.89-2.72,5.61-4.36,8.16-1.64,2.55-3.31,4.79-5.02,6.74-1.7,1.95-3.42,3.54-5.16,4.76-1.74,1.22-3.33,1.96-4.78,2.21-2.34,0-4.23-1.06-5.68-3.19-1.45-2.12-2.18-4.83-2.18-8.13,0-3.55.76-7.29,2.27-11.22,1.52-3.93,3.46-7.58,5.82-10.94,2.37-3.36,4.94-6.17,7.72-8.42,2.78-2.25,5.46-3.38,8.05-3.38.63.19,1.34.57,2.13,1.13.79.57,1.55,1.23,2.27,1.98.73.76,1.34,1.53,1.85,2.31.5.79.79,1.47.85,2.03-2.53.38-5.13,1.61-7.81,3.68-2.68,2.08-5.11,4.58-7.29,7.51-2.18,2.93-3.96,6.06-5.35,9.4-1.39,3.34-2.08,6.46-2.08,9.35,0,1.2.44,1.95,1.33,2.27,1.83-.38,3.94-1.94,6.34-4.69,2.4-2.75,5.3-6.99,8.71-12.74.63-1.14,1.34-2.4,2.13-3.79.79-1.39,1.59-2.84,2.42-4.36.82-1.52,1.62-3.04,2.41-4.59.79-1.55,1.53-3.04,2.23-4.5Z"/>
      <path class="cls-8" d="M93.5,80.37c0-1.01.88-2.64,2.65-4.88,1.77-2.24,4.12-4.8,7.06-7.67,2.94-2.87,6.31-5.9,10.13-9.09,3.82-3.19,7.78-6.27,11.88-9.23-2.65-.57-4.75-.98-6.3-1.23-1.55-.25-2.79-.38-3.74-.38-1.83,0-3.47.25-4.92.76-1.45.51-2.87,1.33-4.26,2.46-2.9-2.52-4.36-5.43-4.36-8.71,0-1.01.03-1.61.09-1.8,1.07-1.07,2.35-1.89,3.84-2.46,1.48-.57,3.04-.85,4.69-.85,1.77,0,3.57.28,5.4.85,1.83.57,3.63,1.18,5.4,1.85,1.77.66,3.42,1.28,4.97,1.85,1.55.57,2.92.85,4.12.85.69,0,1.47-.09,2.32-.28s1.56-.44,2.13-.76c.57.44,1.09,1.33,1.56,2.65.47,1.33.71,2.62.71,3.88-1.96.76-4.31,2.08-7.06,3.98-2.75,1.89-5.54,4.07-8.38,6.53-2.84,2.46-5.6,5.08-8.29,7.86-2.68,2.78-4.91,5.4-6.68,7.86,1.33.57,3.12.85,5.4.85,1.45,0,2.94-.13,4.45-.38,1.52-.25,2.98-.6,4.4-1.04,1.42-.44,2.73-.96,3.93-1.56,1.2-.6,2.21-1.25,3.03-1.94,2.97,1.89,4.45,4.67,4.45,8.33,0,.51-.02.92-.05,1.23-.03.32-.08.7-.14,1.14-2.9,1.83-6.06,2.75-9.47,2.75-1.7,0-3.41-.17-5.11-.52-1.7-.35-3.36-.71-4.97-1.09-1.61-.38-3.12-.74-4.55-1.09-1.42-.35-2.73-.52-3.93-.52-3.03,0-5.49,1.42-7.39,4.26-.82-.32-1.5-.88-2.04-1.7-.54-.82-.87-1.74-.99-2.75Z"/>
      <path class="cls-5" d="M149.41,114.78l-9.32-.56c.7-.72,2.06-2.24,4.04-4.53,6.63-7.64,18.47-23.5,22.18-44-.82,1.26-1.83,2.8-3.03,4.63-1.2,1.83-2.53,3.64-3.98,5.43-1.45,1.79-2.95,3.42-4.5,4.86-1.55,1.45-3.05,2.42-4.5,2.93-1.01,0-2.07-.18-3.17-.52-1.11-.35-2.15-.84-3.12-1.48-.98-.63-1.85-1.4-2.6-2.29-.76-.89-1.26-1.91-1.52-3.05,0-1.83.06-3.3.19-4.4.13-1.1.35-2.32.66-3.65.57-2.4,1.4-5.11,2.51-8.14,1.1-3.03,2.4-6.01,3.88-8.95,1.48-2.94,3.12-5.68,4.92-8.24s3.68-4.56,5.63-6.01c.5,0,1.14.05,1.89.14s1.55.27,2.37.52c.82.25,1.61.55,2.37.9.76.35,1.42.81,1.99,1.37-.7.63-2.21,2.75-4.55,6.34-2.34,3.6-4.92,8.78-7.77,15.53-.32.7-.7,1.7-1.14,3.03-.44,1.33-.87,2.72-1.28,4.17-.41,1.45-.77,2.87-1.09,4.26-.32,1.39-.47,2.49-.47,3.31,0,.51.08.88.24,1.14.16.25.3.44.43.57,1.14-.19,2.65-1.12,4.55-2.79,1.89-1.67,4.04-4.28,6.44-7.81,1.52-2.27,2.9-4.53,4.17-6.77,1.26-2.24,2.51-4.5,3.74-6.77,1.23-2.27,2.51-4.61,3.84-7.01,1.33-2.4,2.75-4.86,4.26-7.39.82,0,1.7.09,2.65.28s1.86.43,2.75.71c.88.28,1.66.6,2.32.95.66.35,1.15.71,1.47,1.09-1.96,4.17-3.79,8.24-5.49,12.22-1.7,3.98-3.22,8.05-4.55,12.22-1.45,4.61-2.9,8.81-4.36,12.59-7.14,19.05-20.24,31.94-23.06,35.17"/>
    </g>
    <g>
      <path class="cls-11" d="M40.68,106.76h-22.16v10.61h17.51v8.84h-17.51v18.52H7.01v-47.34h33.67v9.36Z"/>
      <path class="cls-1" d="M45.89,144.73v-47.34h10.33v47.34h-10.33Z"/>
      <path class="cls-7" d="M75.05,97.4v9.36h-10.33v-9.36h10.33ZM75.05,109.71v35.03h-10.33v-35.03h10.33Z"/>
      <path class="cls-9" d="M114.34,131.59c-.39,4.14-2.03,7.49-4.91,10.04-2.88,2.56-6.6,3.83-11.15,3.83-4.95,0-8.98-1.64-12.09-4.91-3.11-3.27-4.66-7.65-4.66-13.13s1.59-9.92,4.77-13.33c3.18-3.41,7.43-5.11,12.75-5.11,4.28,0,7.82,1.28,10.63,3.85,2.81,2.57,4.36,5.78,4.66,9.64l-9.64.55c-.32-4.21-2.15-6.31-5.48-6.31-4.09,0-6.14,3.35-6.14,10.06,0,4.46.57,7.29,1.72,8.5,1.14,1.2,2.54,1.8,4.18,1.8,3.19,0,5.1-2.02,5.72-6.07l9.64.59Z"/>
      <path class="cls-12" d="M143.52,121.59l11.4,23.15h-11.4l-7.31-15.87-6.08,6.99v8.88h-9.74v-47.34h9.74v28.37l1.52-1.91c.65-.88,1.19-1.58,1.63-2.12l10.61-11.79,9.61.31-9.98,11.33Z"/>
      <path class="cls-3" d="M185.16,118.17l-7.53,2.01c-.88-3.17-3.16-4.75-6.83-4.75-3.47,0-5.2,1.05-5.2,3.16,0,.83.32,1.5.95,2,.64.5,2.29.92,4.98,1.26,4,.53,6.96,1.14,8.88,1.83s3.44,1.86,4.56,3.5c1.12,1.64,1.68,3.66,1.68,6.07,0,3.61-1.37,6.54-4.11,8.81-2.74,2.27-6.57,3.4-11.5,3.4-8.92,0-14.25-3.46-15.99-10.37l8.7-1.28c.72,3.14,3.31,4.72,7.77,4.72,1.71,0,3.16-.31,4.33-.92s1.77-1.44,1.77-2.49c0-1.62-1.3-2.58-3.92-2.88-7.08-.87-11.73-2.23-13.96-4.07-2.23-1.84-3.35-4.4-3.35-7.68s1.29-6.08,3.88-8.25,6.22-3.26,10.89-3.26c3.7,0,6.66.73,8.88,2.18s3.92,3.79,5.1,7.01Z"/>
    </g>
  </g>
</svg>